<?xml version="1.0" encoding="UTF-8"?><svg id="Layer_1" xmlns="http://www.w3.org/2000/svg" viewBox="0 0 52 52"><defs><style>.cls-1{fill:#7e3cbf;}.cls-1,.cls-2,.cls-3{stroke-width:0px;}.cls-2{fill:#ba84ff;}.cls-3{fill:#9151d5;}</style></defs><path class="cls-1" d="M47.7,21.89l-3.03-.8c-.44-1.69-1.1-3.29-1.96-4.76l1.58-2.71c.24-.42.18-.95-.17-1.29l-4.39-4.4c-.34-.34-.88-.41-1.3-.17l-2.71,1.58c-1.47-.86-3.07-1.53-4.75-1.98l-.8-3.04c-.12-.47-.55-.8-1.03-.8h-6.22c-.49-.01-.91.32-1.04.79l-.8,3.03c-1.69.44-3.29,1.1-4.76,1.96l-2.71-1.58c-.42-.24-.95-.18-1.29.17l-4.4,4.39c-.34.34-.41.88-.17,1.3l1.58,2.71c-.86,1.47-1.53,3.07-1.98,4.75l-3.04.8c-.47.12-.8.55-.8,1.03v6.22c-.01.49.32.91.79,1.04l3.03.8c.44,1.69,1.1,3.29,1.96,4.76l-1.58,2.71c-.24.42-.18.95.17,1.29l4.39,4.4c.34.34.88.41,1.3.17l2.71-1.58c1.47.86,3.07,1.53,4.75,1.98l.8,3.04c.12.47.55.8,1.03.8h6.22c.49.01.91-.32,1.04-.79l.8-3.03c1.69-.44,3.29-1.1,4.76-1.96l2.71,1.58c.42.24.95.18,1.29-.17l4.4-4.39c.34-.34.41-.88.17-1.3l-1.58-2.71c.86-1.47,1.53-3.07,1.98-4.75l3.04-.8c.47-.12.8-.55.8-1.03v-6.22c.01-.49-.32-.91-.79-1.04ZM25.98,39.27c-7.33-.01-13.26-5.96-13.24-13.29.01-7.33,5.96-13.26,13.29-13.24,7.33.01,13.26,5.96,13.24,13.29-.01,7.33-5.96,13.26-13.29,13.24Z"/><path class="cls-2" d="M26.03,9.96c-8.86-.02-16.06,7.15-16.07,16.01-.02,8.86,7.15,16.06,16.01,16.07,8.86.02,16.06-7.15,16.07-16.01.02-8.86-7.15-16.06-16.01-16.07ZM25.98,39.27c-7.33-.01-13.26-5.96-13.24-13.29.01-7.33,5.96-13.26,13.29-13.24,7.33.01,13.26,5.96,13.24,13.29-.01,7.33-5.96,13.26-13.29,13.24Z"/><path class="cls-3" d="M24.19,26.48h3.62c3.27,0,5.92,2.65,5.92,5.92h0c0,.75-.61,1.36-1.36,1.36h-12.76c-.75,0-1.36-.61-1.36-1.36h0c0-3.27,2.65-5.92,5.92-5.92Z"/><circle class="cls-3" cx="26.01" cy="21.2" r="4"/></svg>