<?xml version="1.0" encoding="UTF-8"?>
<svg id="Layer_1" xmlns="http://www.w3.org/2000/svg" viewBox="0 0 32 32">
    <defs>
        <style>.cls-1{fill:#ba84ff;}.cls-1,.cls-2{stroke-width:0px;}.cls-2{fill:#9151d5;}</style>
    </defs>
    <path class="cls-1" d="M27.61,19.34l2.7-.69c.41-.1.69-.47.69-.9l-.03-3.77c0-.42-.29-.79-.71-.89l-2.71-.64c-.25-.81-.57-1.59-.97-2.31l1.42-2.39c.22-.36.16-.83-.15-1.12l-2.69-2.64c-.3-.3-.77-.35-1.12-.13l-2.37,1.46c-.73-.39-1.51-.7-2.33-.94l-.69-2.7c-.1-.41-.47-.69-.9-.69l-3.77.03c-.42,0-.79.29-.89.71l-.64,2.71c-.81.25-1.59.57-2.31.97l-2.39-1.42c-.36-.22-.83-.16-1.12.15l-2.64,2.69c-.3.3-.35.77-.13,1.12l1.46,2.37c-.39.73-.7,1.51-.94,2.33l-2.7.69c-.41.1-.69.47-.69.9l.03,3.77c0,.42.29.79.71.89l2.71.64c.25.81.57,1.59.97,2.31l-1.42,2.39c-.22.36-.16.83.15,1.12l2.69,2.64c.3.3.77.35,1.12.13l2.37-1.46c.73.39,1.51.7,2.33.94l.69,2.7c.1.41.47.69.9.69l3.77-.03c.42,0,.79-.29.89-.71l.64-2.71c.81-.25,1.59-.57,2.31-.97l2.39,1.42c.36.22.83.16,1.12-.15l2.64-2.69c.3-.3.35-.77.13-1.12l-1.46-2.37c.39-.73.7-1.51.94-2.33ZM10.1,17.23c-.84-4.24,2.78-7.92,7.04-7.15,2.36.43,4.31,2.34,4.77,4.7.84,4.24-2.78,7.92-7.04,7.15-2.36-.43-4.31-2.34-4.77-4.7Z"/>
    <path class="cls-2" d="M24.08,14.32c-.64-3.22-3.3-5.84-6.53-6.42-5.82-1.05-10.77,3.99-9.62,9.78.64,3.22,3.3,5.84,6.53,6.42,5.82,1.05,10.77-3.99,9.62-9.78ZM14.87,21.92c-2.36-.43-4.31-2.34-4.77-4.7-.84-4.24,2.78-7.92,7.04-7.15,2.36.43,4.31,2.34,4.77,4.7.84,4.24-2.78,7.92-7.04,7.15Z"/>
</svg>