<?xml version="1.0" encoding="UTF-8"?><svg id="Layer_1" xmlns="http://www.w3.org/2000/svg" viewBox="0 0 52 52"><defs><style>.cls-1{fill:#5e3cbf;}.cls-1,.cls-2,.cls-3{stroke-width:0px;}.cls-2{fill:#a084ff;}.cls-3{fill:#7651d5;}</style></defs><path class="cls-1" d="M36.23,46h-5.12c-.87,0-1.58-.71-1.58-1.58s.71-1.58,1.58-1.58h5.12c3.64,0,6.61-2.96,6.61-6.61v-6.02c0-.87.71-1.58,1.58-1.58s1.58.71,1.58,1.58v6.02c0,5.38-4.38,9.77-9.77,9.77Z"/><path class="cls-1" d="M20.88,46h-5.12c-5.38,0-9.77-4.38-9.77-9.77v-6.02c0-.87.71-1.58,1.58-1.58s1.58.71,1.58,1.58v6.02c0,3.64,2.96,6.61,6.61,6.61h5.12c.87,0,1.58.71,1.58,1.58s-.71,1.58-1.58,1.58Z"/><path class="cls-1" d="M7.58,22.46c-.87,0-1.58-.71-1.58-1.58v-5.12c0-5.38,4.38-9.77,9.77-9.77h5.12c.87,0,1.58.71,1.58,1.58s-.71,1.58-1.58,1.58h-5.12c-3.64,0-6.61,2.96-6.61,6.61v5.12c0,.87-.71,1.58-1.58,1.58Z"/><path class="cls-1" d="M44.42,22.46c-.87,0-1.58-.71-1.58-1.58v-5.12c0-3.64-2.96-6.61-6.61-6.61h-5.12c-.87,0-1.58-.71-1.58-1.58s.71-1.58,1.58-1.58h5.12c5.38,0,9.77,4.38,9.77,9.77v5.12c0,.87-.71,1.58-1.58,1.58Z"/><path class="cls-2" d="M21.63,25.54h-4.46c-2.1,0-3.81-1.71-3.81-3.81v-4.46c0-2.1,1.71-3.81,3.81-3.81h4.46c2.1,0,3.81,1.71,3.81,3.81v4.46c0,2.1-1.71,3.81-3.81,3.81ZM17.47,16.62c-.52,0-.95.42-.95.95v3.86c0,.52.42.95.95.95h3.86c.52,0,.95-.42.95-.95v-3.86c0-.52-.42-.95-.95-.95h-3.86Z"/><rect class="cls-2" x="17.78" y="17.87" width="3.25" height="3.25" rx=".84" ry=".84" transform="translate(38.81 39) rotate(-180)"/><rect class="cls-3" x="17.78" y="31.06" width="3.25" height="3.25" rx=".84" ry=".84" transform="translate(38.81 65.37) rotate(-180)"/><rect class="cls-3" x="26.56" y="31.16" width="3.16" height="3.16" rx="1.58" ry="1.58" transform="translate(56.27 65.47) rotate(180)"/><path class="cls-2" d="M34.82,25.54h-4.46c-2.1,0-3.81-1.71-3.81-3.81v-4.46c0-2.1,1.7-3.81,3.81-3.81h4.46c2.1,0,3.81,1.7,3.81,3.81v4.46c0,2.1-1.7,3.81-3.81,3.81ZM30.66,16.62c-.52,0-.95.42-.95.95v3.86c0,.52.43.95.95.95h3.86c.52,0,.95-.43.95-.95v-3.86c0-.52-.43-.95-.95-.95h-3.86Z"/><path class="cls-3" d="M35.09,38.72h-2.25c-.87,0-1.58-.71-1.58-1.58s.71-1.58,1.58-1.58h2.25c.21,0,.38-.17.38-.38v-2.45c0-.87.71-1.58,1.58-1.58s1.58.71,1.58,1.58v2.45c0,1.95-1.59,3.54-3.54,3.54Z"/><path class="cls-3" d="M32.95,34.31c-.87,0-1.58-.71-1.58-1.58v-2.21h-3.24c-.87,0-1.58-.71-1.58-1.58s.71-1.58,1.58-1.58h6.39v5.36c0,.87-.71,1.58-1.58,1.58Z"/><rect class="cls-2" x="30.97" y="17.87" width="3.25" height="3.25" rx=".84" ry=".84" transform="translate(65.19 39) rotate(-180)"/><path class="cls-3" d="M21.63,38.72h-4.46c-2.1,0-3.81-1.71-3.81-3.81v-7.54h12.07v7.54c0,2.1-1.71,3.81-3.81,3.81ZM16.53,30.53v4.09c0,.52.42.95.95.95h3.86c.52,0,.95-.43.95-.95v-4.09h-5.76Z"/><path class="cls-1" d="M46.93,30.53H5.07c-.87,0-1.57-.71-1.57-1.58s.7-1.58,1.57-1.58h41.86c.87,0,1.57.71,1.57,1.58s-.7,1.58-1.57,1.58Z"/></svg>