<svg width="52" height="52" viewBox="0 0 52 52" fill="none" xmlns="http://www.w3.org/2000/svg">
<path d="M50.9997 37.8498C50.9997 38.7698 50.2497 39.5098 49.3297 39.5098H41.9597C41.6897 36.0198 39.9997 32.9298 37.4697 30.8098C38.0497 30.6498 38.6497 30.5698 39.2797 30.5698H43.7197C47.7397 30.5698 50.9997 33.8298 50.9997 37.8498Z" fill="#7651D5"/>
<path d="M46.4296 24.0899C46.4296 26.8099 44.2296 29.0099 41.5196 29.0099C38.8096 29.0099 36.5996 26.8099 36.5996 24.0899C36.5996 21.3699 38.7996 19.1699 41.5196 19.1699C44.2396 19.1699 46.4296 21.3799 46.4296 24.0899Z" fill="#7651D5"/>
<path d="M14.53 30.8098C12 32.9298 10.31 36.0198 10.04 39.5098H2.67C1.75 39.5098 1 38.7698 1 37.8498C1 35.8398 1.82 34.0198 3.13 32.6998C4.45 31.3798 6.27 30.5698 8.28 30.5698H12.72C13.35 30.5698 13.95 30.6498 14.53 30.8098Z" fill="#A084FF"/>
<path d="M15.4296 24.0899C15.4296 26.8099 13.2296 29.0099 10.5196 29.0099C7.80961 29.0099 5.59961 26.8099 5.59961 24.0899C5.59961 21.3699 7.79961 19.1699 10.5196 19.1699C13.2396 19.1699 15.4296 21.3799 15.4296 24.0899Z" fill="#A084FF"/>
<path d="M40.0102 40.5401C40.0102 41.2201 39.7402 41.8401 39.2902 42.2801C38.8502 42.7201 38.2402 43.0001 37.5602 43.0001H14.4402C13.0902 43.0001 11.9902 41.9001 11.9902 40.5401C11.9902 40.1901 12.0102 39.8501 12.0402 39.5101C12.2802 36.9601 13.4202 34.6701 15.1302 32.9601C15.5902 32.5001 16.0902 32.0801 16.6302 31.7101C18.3602 30.5101 20.4602 29.8101 22.7202 29.8101H29.2802C31.5402 29.8101 33.6402 30.5101 35.3702 31.7101C37.9102 33.4601 39.6502 36.2801 39.9602 39.5101C39.9902 39.8501 40.0102 40.1901 40.0102 40.5401Z" fill="#5E3CBF"/>
<path d="M33.2795 20.25C33.2795 24.26 30.0295 27.51 26.0195 27.51C22.0095 27.51 18.7695 24.26 18.7695 20.25C18.7695 16.24 22.0195 13 26.0195 13C30.0195 13 33.2795 16.25 33.2795 20.25Z" fill="#5E3CBF"/>
</svg>
