<svg width="52" height="52" viewBox="0 0 52 52" fill="none" xmlns="http://www.w3.org/2000/svg">
<rect width="52" height="52" rx="11" fill="white"/>
<mask id="mask0_425_863" style="mask-type:luminance" maskUnits="userSpaceOnUse" x="16" y="16" width="20" height="20">
<path d="M36 16H16V36H36V16Z" fill="white"/>
</mask>
<g mask="url(#mask0_425_863)">
<path d="M35.6 26.2298C35.6 25.5198 35.54 24.8398 35.42 24.1798H26V28.0498H31.38C31.15 29.2998 30.44 30.3598 29.38 31.0698V33.5798H32.61C34.5 31.8398 35.59 29.2798 35.59 26.2298H35.6Z" fill="#4285F4"/>
<path d="M25.9998 35.9998C28.6998 35.9998 30.9598 35.0998 32.6198 33.5798L29.3898 31.0698C28.4898 31.6698 27.3498 32.0198 25.9998 32.0198C23.3998 32.0198 21.1898 30.2598 20.3998 27.8998H17.0598V30.4898C18.7098 33.7598 22.0898 35.9998 25.9998 35.9998Z" fill="#34A853"/>
<path d="M20.4 27.8999C20.2 27.2999 20.09 26.6599 20.09 25.9999C20.09 25.3399 20.2 24.6999 20.4 24.0999V21.5099H17.06C16.38 22.8599 16 24.3899 16 25.9999C16 27.6099 16.39 29.1399 17.06 30.4899L20.4 27.8999Z" fill="#FBBC04"/>
<path d="M25.9998 19.9799C27.4698 19.9799 28.7898 20.4799 29.8198 21.4799L32.6898 18.6099C30.9598 16.9999 28.6898 16.0099 25.9998 16.0099C22.0898 15.9999 18.7098 18.2399 17.0598 21.5099L20.3998 24.0999C21.1898 21.7399 23.3898 19.9799 25.9998 19.9799Z" fill="#E94235"/>
</g>
</svg>
