<svg width="31" height="39" viewBox="0 0 31 39" fill="none" xmlns="http://www.w3.org/2000/svg">
<g id="Group 37284">
<circle id="Color" cx="15.1791" cy="30.1352" r="8.03601" fill="url(#paint0_linear_1_2763)"/>
<g id="Glass" filter="url(#filter0_bi_1_2763)">
<mask id="path-2-inside-1_1_2763" fill="white">
<path fill-rule="evenodd" clip-rule="evenodd" d="M15.1792 15.1791C19.3708 15.1791 22.7688 11.7812 22.7688 7.58956C22.7688 3.39796 19.3708 0 15.1792 0C10.9876 0 7.58968 3.39796 7.58968 7.58956C7.58968 11.7812 10.9876 15.1791 15.1792 15.1791ZM30.3582 28.4606C30.3582 33.1486 21.9254 34.1528 15.1791 34.1528C8.43285 34.1528 0 33.1486 0 28.4606C0 23.7726 6.79592 17.0763 15.1791 17.0763C23.5623 17.0763 30.3582 23.7726 30.3582 28.4606Z"/>
</mask>
<path fill-rule="evenodd" clip-rule="evenodd" d="M15.1792 15.1791C19.3708 15.1791 22.7688 11.7812 22.7688 7.58956C22.7688 3.39796 19.3708 0 15.1792 0C10.9876 0 7.58968 3.39796 7.58968 7.58956C7.58968 11.7812 10.9876 15.1791 15.1792 15.1791ZM30.3582 28.4606C30.3582 33.1486 21.9254 34.1528 15.1791 34.1528C8.43285 34.1528 0 33.1486 0 28.4606C0 23.7726 6.79592 17.0763 15.1791 17.0763C23.5623 17.0763 30.3582 23.7726 30.3582 28.4606Z" fill="#F1F1F1" fill-opacity="0.1"/>
<path fill-rule="evenodd" clip-rule="evenodd" d="M15.1792 15.1791C19.3708 15.1791 22.7688 11.7812 22.7688 7.58956C22.7688 3.39796 19.3708 0 15.1792 0C10.9876 0 7.58968 3.39796 7.58968 7.58956C7.58968 11.7812 10.9876 15.1791 15.1792 15.1791ZM30.3582 28.4606C30.3582 33.1486 21.9254 34.1528 15.1791 34.1528C8.43285 34.1528 0 33.1486 0 28.4606C0 23.7726 6.79592 17.0763 15.1791 17.0763C23.5623 17.0763 30.3582 23.7726 30.3582 28.4606Z" fill="url(#paint1_linear_1_2763)" fill-opacity="0.2"/>
<path d="M22.5688 7.58956C22.5688 11.6707 19.2604 14.9791 15.1792 14.9791V15.3791C19.4813 15.3791 22.9688 11.8916 22.9688 7.58956H22.5688ZM15.1792 0.2C19.2604 0.2 22.5688 3.50842 22.5688 7.58956H22.9688C22.9688 3.28751 19.4813 -0.2 15.1792 -0.2V0.2ZM7.78968 7.58956C7.78968 3.50842 11.0981 0.2 15.1792 0.2V-0.2C10.8772 -0.2 7.38968 3.28751 7.38968 7.58956H7.78968ZM15.1792 14.9791C11.0981 14.9791 7.78968 11.6707 7.78968 7.58956H7.38968C7.38968 11.8916 10.8772 15.3791 15.1792 15.3791V14.9791ZM15.1791 34.3528C18.5576 34.3528 22.3746 34.1018 25.3531 33.2571C26.8419 32.8349 28.1373 32.26 29.0639 31.4808C29.9964 30.6968 30.5582 29.7022 30.5582 28.4606H30.1582C30.1582 29.563 29.666 30.4519 28.8065 31.1747C27.9412 31.9023 26.7067 32.4575 25.244 32.8723C22.3195 33.7017 18.5469 33.9528 15.1791 33.9528V34.3528ZM-0.2 28.4606C-0.2 29.7022 0.361894 30.6968 1.29433 31.4808C2.22098 32.26 3.51639 32.8349 5.00514 33.2571C7.98366 34.1018 11.8006 34.3528 15.1791 34.3528V33.9528C11.8113 33.9528 8.03875 33.7017 5.11428 32.8723C3.65153 32.4575 2.41708 31.9023 1.55176 31.1747C0.692212 30.4519 0.2 29.563 0.2 28.4606H-0.2ZM15.1791 16.8763C10.9346 16.8763 7.096 18.571 4.31879 20.856C1.55003 23.1341 -0.2 26.0312 -0.2 28.4606H0.2C0.2 26.202 1.84793 23.407 4.57293 21.1649C7.28948 18.9298 11.0405 17.2763 15.1791 17.2763V16.8763ZM30.5582 28.4606C30.5582 26.0312 28.8082 23.1341 26.0395 20.856C23.2622 18.571 19.4237 16.8763 15.1791 16.8763V17.2763C19.3177 17.2763 23.0688 18.9298 25.7853 21.1649C28.5103 23.407 30.1582 26.202 30.1582 28.4606H30.5582Z" fill="url(#paint2_linear_1_2763)" fill-opacity="0.1" mask="url(#path-2-inside-1_1_2763)"/>
</g>
</g>
<defs>
<filter id="filter0_bi_1_2763" x="-3" y="-3" width="36.3584" height="40.1528" filterUnits="userSpaceOnUse" color-interpolation-filters="sRGB">
<feFlood flood-opacity="0" result="BackgroundImageFix"/>
<feGaussianBlur in="BackgroundImageFix" stdDeviation="1.5"/>
<feComposite in2="SourceAlpha" operator="in" result="effect1_backgroundBlur_1_2763"/>
<feBlend mode="normal" in="SourceGraphic" in2="effect1_backgroundBlur_1_2763" result="shape"/>
<feColorMatrix in="SourceAlpha" type="matrix" values="0 0 0 0 0 0 0 0 0 0 0 0 0 0 0 0 0 0 127 0" result="hardAlpha"/>
<feOffset dy="0.5"/>
<feGaussianBlur stdDeviation="1"/>
<feComposite in2="hardAlpha" operator="arithmetic" k2="-1" k3="1"/>
<feColorMatrix type="matrix" values="0 0 0 0 1 0 0 0 0 1 0 0 0 0 1 0 0 0 0.4 0"/>
<feBlend mode="normal" in2="shape" result="effect2_innerShadow_1_2763"/>
</filter>
<linearGradient id="paint0_linear_1_2763" x1="7.81273" y1="25.3136" x2="25.3326" y2="27.747" gradientUnits="userSpaceOnUse">
<stop stop-color="#FE82DB"/>
<stop offset="1" stop-color="#68E4FF"/>
</linearGradient>
<linearGradient id="paint1_linear_1_2763" x1="1.26493" y1="6.83061" x2="34.4899" y2="10.9325" gradientUnits="userSpaceOnUse">
<stop stop-color="#FE82DB"/>
<stop offset="1" stop-color="#68E4FF"/>
</linearGradient>
<linearGradient id="paint2_linear_1_2763" x1="0.948695" y1="1.55241" x2="30.3582" y2="1.55241" gradientUnits="userSpaceOnUse">
<stop stop-color="#FD84DC"/>
<stop offset="1" stop-color="#7FD6FA"/>
</linearGradient>
</defs>
</svg>
