<svg width="21" height="21" viewBox="0 0 21 21" fill="none" xmlns="http://www.w3.org/2000/svg">
<path d="M17.1876 11.1677C17.1623 8.512 19.4011 7.22536 19.5105 7.16763C18.2396 5.35315 16.2786 5.10572 15.58 5.08923C13.9304 4.91603 12.3228 6.0542 11.4811 6.0542C10.6395 6.0542 9.3265 5.10572 7.92935 5.13046C6.1282 5.15521 4.45331 6.17791 3.52748 7.76146C1.62534 10.9863 3.04774 15.7369 4.86572 18.3432C5.77471 19.6216 6.84361 21.0484 8.24076 20.9989C9.60425 20.9412 10.1177 20.1494 11.7589 20.1494C13.4001 20.1494 13.8714 20.9989 15.2938 20.9659C16.7583 20.9412 17.6842 19.6793 18.5595 18.3927C19.6115 16.9328 20.0408 15.4895 20.0492 15.4153C20.0155 15.407 17.2044 14.3513 17.1792 11.176L17.1876 11.1677Z" fill="white"/>
<path d="M14.5029 3.36504C15.2351 2.46604 15.7401 1.24539 15.5971 0C14.5366 0.0494858 13.2067 0.717544 12.4408 1.60004C11.7675 2.37532 11.1615 3.64546 11.313 4.84136C12.5082 4.93209 13.7286 4.24753 14.4945 3.36504H14.5029Z" fill="white"/>
</svg>
